<svg width="781" height="421" viewBox="0 0 781 421" fill="none" xmlns="http://www.w3.org/2000/svg">
<g clip-path="url(#clip0_1124_26886)">
<rect width="780" height="420" transform="translate(0.902588 0.128906)" fill="#F7F7F7"/>
<circle cx="572.501" cy="336.152" r="280" fill="#56C8FC"/>
<path fill-rule="evenodd" clip-rule="evenodd" d="M435.774 580.557C350.28 532.627 292.5 441.137 292.5 336.152C292.5 298.28 300.019 262.165 313.645 229.217C328.767 225.259 344.638 223.152 361.001 223.152C464.002 223.152 547.501 306.651 547.501 409.652C547.501 486.061 501.55 551.739 435.774 580.557Z" fill="#42ECAE"/>
<path fill-rule="evenodd" clip-rule="evenodd" d="M686.122 80.1646C749.422 108.303 800.35 159.23 828.488 222.531C809.962 244.325 782.346 258.152 751.5 258.152C695.72 258.152 650.5 212.932 650.5 157.152C650.5 126.306 664.328 98.6906 686.122 80.1646Z" fill="#42ECAE"/>
<path fill-rule="evenodd" clip-rule="evenodd" d="M300.66 268.778C317.578 200.287 359.705 141.729 416.632 103.512C444.248 121.537 462.501 152.713 462.501 188.152C462.501 243.933 417.281 289.152 361.501 289.152C338.655 289.152 317.581 281.567 300.66 268.778Z" fill="#42ECAE"/>
<path fill-rule="evenodd" clip-rule="evenodd" d="M313.645 229.217C308.376 241.957 304.021 255.172 300.66 268.778C317.581 281.567 338.655 289.152 361.501 289.152C396.814 289.152 427.894 271.029 445.948 243.577C420.471 230.519 391.596 223.152 361.001 223.152C344.638 223.152 328.767 225.259 313.645 229.217Z" fill="white"/>
<circle cx="0.902626" cy="420.129" r="118" fill="#56C8FC"/>
<path fill-rule="evenodd" clip-rule="evenodd" d="M40.6304 308.983C73.8413 320.855 100.176 347.19 112.048 380.401C102.914 389.502 90.3156 395.129 76.4026 395.129C48.5122 395.129 25.9026 372.519 25.9026 344.629C25.9026 330.716 31.5289 318.117 40.6304 308.983Z" fill="#42ECAE"/>
<circle cx="173.691" cy="-31.904" r="118" transform="rotate(-98.2185 173.691 -31.904)" fill="#56C8FC"/>
<path fill-rule="evenodd" clip-rule="evenodd" d="M283.869 10.4006C269.028 48.9477 234.348 78.5592 190.559 84.8838C174.763 87.1652 159.246 86.2049 144.682 82.5063C142.121 76.4374 140.286 69.9447 139.3 63.1198C133.095 20.158 162.892 -19.6996 205.854 -25.9046C237.724 -30.5077 267.887 -15.2982 283.869 10.4006Z" fill="#42ECAE"/>
<path fill-rule="evenodd" clip-rule="evenodd" d="M161.966 85.5396C132.379 82.6089 105.417 68.5654 86.0471 47.1235C91.9017 34.5187 103.806 25.0277 118.587 22.8928C141.853 19.5324 163.438 35.6692 166.799 58.9354C168.175 68.4643 166.281 77.7112 161.966 85.5396Z" fill="#42ECAE"/>
<path fill-rule="evenodd" clip-rule="evenodd" d="M144.683 82.5066C150.314 83.9368 156.088 84.9575 161.966 85.5397C166.281 77.7113 168.175 68.4644 166.799 58.9355C164.671 44.2064 155.24 32.3346 142.702 26.458C138.79 37.871 137.457 50.3586 139.3 63.1201C140.286 69.945 142.121 76.4377 144.683 82.5066Z" fill="white"/>
</g>
<defs>
<clipPath id="clip0_1124_26886">
<rect width="780" height="420" fill="white" transform="translate(0.902588 0.128906)"/>
</clipPath>
</defs>
</svg>
